<svg width="43" height="46" viewBox="0 0 43 46" fill="none" xmlns="http://www.w3.org/2000/svg">
<path fill-rule="evenodd" clip-rule="evenodd" d="M16.6642 46H28.7095C30.0452 46 31.132 44.9133 31.132 43.5765V42.5318H35.5829C35.6164 42.5318 35.6493 42.5292 35.6815 42.5243C36.0628 42.5018 36.425 42.3507 36.71 42.0925L38.7069 40.2835C39.0183 40.3809 39.3495 40.4336 39.6928 40.4336C41.5169 40.4336 43.0007 38.9487 43.0007 37.123C43.0007 35.2974 41.5169 33.8125 39.6928 33.8125C37.8687 33.8125 36.385 35.2974 36.385 37.123C36.385 37.3517 36.4084 37.5751 36.4526 37.791L34.9409 39.1603H31.1323V34.7826C31.1323 34.7262 31.1304 34.6706 31.1265 34.6152L37.1207 28.6724C37.4841 28.3519 37.692 27.8924 37.692 27.4072V24.6535C38.6633 24.0761 39.3157 23.0155 39.3157 21.805C39.3157 19.9794 37.8319 18.4944 36.0078 18.4944C34.1838 18.4944 32.7 19.9794 32.7 21.805C32.7 23.0155 33.3524 24.0761 34.3237 24.6535V26.7084L29.6144 31.3772V31.1656C29.6144 29.3198 28.892 27.5801 27.5808 26.2678C27.4857 26.1727 27.3885 26.0808 27.2892 25.9919L29.0027 23.6313C29.2373 23.3349 29.3665 22.9643 29.3665 22.5853V13.0238C30.3377 12.4464 30.9901 11.3858 30.9901 10.1753C30.9901 8.34972 29.5064 6.86475 27.6823 6.86475C26.1051 6.86475 24.7825 7.9749 24.4532 9.45531C24.3761 9.16548 24.2222 8.90138 24.0019 8.68677L19.3125 4.10029C19.3746 3.84693 19.4075 3.5825 19.4075 3.31058C19.4075 1.48497 17.9237 0 16.0996 0C14.2755 0 12.7915 1.48432 12.7915 3.30993C12.7915 5.13553 14.2752 6.62051 16.0993 6.62051C16.3973 6.62051 16.6866 6.58078 16.9619 6.5062L21.144 10.5964V16.7737L20.0088 18.2753H18.8934C18.306 17.3501 17.2729 16.7349 16.0993 16.7349C14.2752 16.7349 12.7915 18.2199 12.7915 20.0455C12.7915 21.8711 14.2752 23.3561 16.0993 23.3561C17.3436 23.3561 18.4297 22.6651 18.9942 21.6461H20.8444C20.8642 21.6461 20.8837 21.6451 20.9029 21.6435C21.4128 21.6262 21.8781 21.3849 22.1866 20.9759L24.1262 18.4111C24.3754 18.1095 24.5124 17.7292 24.5124 17.3371V11.1233C24.7529 11.927 25.2907 12.6034 25.9978 13.0235V22.0398L24.2736 24.4154C23.7591 24.2946 23.2275 24.2324 22.6867 24.2324C20.8424 24.2324 19.1042 24.9554 17.7929 26.2678C16.4816 27.5801 15.7593 29.3194 15.7593 31.1656V31.262L12.4166 25.4191C12.1244 24.8616 11.5543 24.5161 10.9247 24.5161H7.04649V18.7947C8.11505 18.245 8.84749 17.1306 8.84749 15.8479C8.84749 14.0223 7.36374 12.5373 5.53964 12.5373C3.71555 12.5373 2.2318 14.0223 2.2318 15.8479C2.2318 16.9831 2.80578 17.9867 3.67845 18.5833V26.2013C3.67845 27.1307 4.43399 27.8869 5.36264 27.8869H9.94956L13.8834 34.763H11.9536C11.433 33.6174 10.2782 32.8189 8.94087 32.8189C7.11677 32.8189 5.63303 34.3039 5.63303 36.1295C5.63303 37.9551 7.11677 39.4401 8.94087 39.4401C10.0127 39.4401 10.967 38.9275 11.5719 38.1342H14.242V40.5782H6.15397C5.57706 39.6061 4.51729 38.9532 3.30784 38.9532C1.48375 38.9532 0 40.4382 0 42.2638C0 44.0894 1.48375 45.5744 3.30784 45.5744C4.51729 45.5744 5.57706 44.9214 6.15397 43.9494H14.2706C14.4509 45.1093 15.4554 46 16.6642 46ZM15.5435 34.7823V34.7797C15.5448 34.3097 15.8442 33.8867 16.289 33.7265C16.2958 33.7242 16.3027 33.7216 16.3092 33.719C16.3677 33.6995 16.4283 33.6845 16.4907 33.6747C16.495 33.6744 16.4995 33.6737 16.5037 33.6731C16.5561 33.6653 16.6092 33.6614 16.6616 33.6614H28.7095H28.7121C28.7512 33.6614 28.7905 33.6636 28.8299 33.6679H28.8338L28.8387 33.6685L28.8686 33.6724H28.8699C29.3232 33.7382 29.6977 34.0831 29.8015 34.5305L29.8044 34.5426C29.8213 34.6198 29.8301 34.7002 29.8301 34.7823V43.5755C29.8301 44.1939 29.3274 44.6971 28.7095 44.6971H16.6642C16.0463 44.6971 15.5435 44.1939 15.5435 43.5755V34.7823ZM1.30153 42.2638C1.30153 41.1566 2.20154 40.2558 3.30784 40.2558C4.41414 40.2558 5.31415 41.1566 5.31415 42.2638C5.31415 43.371 4.41414 44.2718 3.30784 44.2718C2.20154 44.2718 1.30153 43.371 1.30153 42.2638ZM6.59388 42.6468H14.242V41.8811H6.59388C6.60853 42.0075 6.61568 42.1352 6.61568 42.2641C6.61568 42.3931 6.60853 42.5204 6.59388 42.6468ZM35.5058 41.2282H31.1317V40.4623H35.1911C35.3525 40.4623 35.5081 40.4024 35.6278 40.2939L37.0029 39.0483C37.1499 39.2535 37.3204 39.442 37.5101 39.6091L35.8357 41.126C35.7466 41.2067 35.649 41.2237 35.5826 41.2237C35.5569 41.2237 35.5312 41.2253 35.5058 41.2282ZM37.6858 37.1224C37.6858 36.0152 38.5859 35.1144 39.6922 35.1144C40.7985 35.1144 41.6985 36.0152 41.6985 37.1224C41.6985 38.2296 40.7985 39.1304 39.6922 39.1304C38.5859 39.1304 37.6858 38.2296 37.6858 37.1224ZM6.93456 36.1298C6.93456 35.0226 7.83457 34.1218 8.94087 34.1218C10.0351 34.1218 10.928 35.003 10.9472 36.094V36.1005V36.1073V36.1103V36.1138V36.1168V36.1204V36.1262V36.1347V36.1386C10.9462 36.3105 10.9234 36.4812 10.8798 36.646C10.6517 37.5041 9.86886 38.1378 8.94087 38.1378C7.83457 38.1378 6.93456 37.237 6.93456 36.1298ZM14.242 36.8316H12.1739C12.2217 36.6111 12.2471 36.3832 12.2484 36.1487V36.1474V36.1451V36.1422V36.1406V36.136V36.1347V36.1252V36.1239V36.1187V36.1145V36.1129V36.1096V36.1067V36.1044V36.1008C12.2484 36.0891 12.2481 36.0777 12.2481 36.066H14.242V36.8316ZM4.97999 26.2016V19.1115C5.15797 19.1418 5.34018 19.1578 5.5263 19.1584H5.52793H5.53411H5.53997H5.54648H5.55168H5.55656H5.5673H5.57251C5.63042 19.1578 5.68802 19.1558 5.74561 19.1523V25.1674C5.74561 25.5272 6.03683 25.8187 6.39638 25.8187H10.9254C11.0699 25.8187 11.2003 25.8988 11.2664 26.0278C11.2709 26.0369 11.2758 26.046 11.281 26.0548L15.1791 32.8687C14.9676 33.0335 14.7841 33.2328 14.6367 33.4578L10.8919 26.9122C10.7757 26.7097 10.5603 26.5846 10.327 26.5846H5.36264C5.15146 26.5846 4.97999 26.4127 4.97999 26.2016ZM30.0589 32.7701C30.2704 32.9127 30.4581 33.0876 30.6153 33.2878L36.2197 27.7319C36.2311 27.7205 36.2431 27.7094 36.2555 27.699C36.341 27.6261 36.3902 27.5196 36.3902 27.4075V25.0941C36.1377 25.1231 35.8777 25.1231 35.6252 25.0941V26.9806C35.6252 27.1545 35.5559 27.3209 35.4326 27.4434L30.0589 32.7701ZM28.3125 32.3581H27.5476V31.1656C27.5476 29.8717 27.0403 28.6515 26.1195 27.7299C25.1983 26.8083 23.9794 26.3006 22.6867 26.3006C21.3939 26.3006 20.1747 26.8083 19.2539 27.7299C18.333 28.6519 17.8258 29.8717 17.8258 31.1656V32.3581H17.0608V31.1656C17.0608 29.6676 17.6475 28.2552 18.7131 27.1887C19.7787 26.1222 21.1899 25.535 22.6867 25.535C23.2424 25.535 23.7865 25.6161 24.3051 25.7724C24.3175 25.777 24.3299 25.7812 24.3425 25.7851C24.9422 25.9714 25.5045 26.2564 26.0137 26.6322C26.0194 26.6364 26.025 26.6404 26.0307 26.6443C26.0341 26.6467 26.0376 26.649 26.041 26.6514C26.2581 26.8139 26.465 26.9933 26.6602 27.1887C27.7255 28.2552 28.3125 29.6676 28.3125 31.1656V32.3581ZM26.246 32.3581H19.1276L19.128 31.1656C19.128 30.2199 19.4995 29.3266 20.1747 28.6512C20.8499 27.9758 21.7421 27.6036 22.687 27.6036C23.6319 27.6036 24.5241 27.9755 25.1993 28.6512C25.8741 29.3269 26.246 30.2199 26.246 31.1656V32.3581ZM26.2421 25.2179C26.0215 25.0847 25.7944 24.9648 25.5614 24.8577L27.1753 22.6341C27.256 22.5231 27.2996 22.3889 27.2996 22.2515V13.4638C27.5521 13.4927 27.8121 13.4927 28.0646 13.4638V22.585C28.0646 22.6973 28.0184 22.7777 27.9797 22.8256C27.9725 22.8347 27.9654 22.8438 27.9585 22.8533L26.2421 25.2179ZM38.0138 21.805C38.0138 22.9122 37.1138 23.813 36.0075 23.813C34.9012 23.813 34.0012 22.9122 34.0012 21.805C34.0012 20.6978 34.9012 19.797 36.0075 19.797C37.1138 19.797 38.0138 20.6978 38.0138 21.805ZM14.0933 20.0462C14.0933 18.939 14.9933 18.0382 16.0996 18.0382C17.2036 18.0382 18.1024 18.9363 18.1059 20.0406V20.0537V20.0566V20.0592C18.0988 21.1606 17.2059 22.0541 16.0996 22.0541C14.9933 22.0541 14.0933 21.1534 14.0933 20.0462ZM20.7988 20.3441H19.3941C19.4019 20.2546 19.4065 20.1634 19.4071 20.0725V20.067V20.0631V20.0618V20.0582V20.0566V20.0527V20.041C19.4068 19.885 19.3961 19.7306 19.3746 19.5785H20.3325C20.5365 19.5785 20.7285 19.4831 20.8515 19.3203L22.3141 17.3859C22.3997 17.2726 22.4459 17.1348 22.4459 16.9929V10.3228C22.4459 10.1476 22.3753 9.97961 22.25 9.85717L18.1837 5.8803C18.3806 5.72008 18.5589 5.53739 18.7144 5.33679L23.0931 9.61911C23.1673 9.69108 23.2079 9.7878 23.2079 9.89136C23.2079 9.9122 23.2089 9.93304 23.2109 9.95356V17.3374C23.2109 17.4537 23.1617 17.5357 23.1204 17.5846C23.1129 17.594 23.1051 17.6035 23.098 17.6129L21.1486 20.1911C21.076 20.2872 20.9651 20.3425 20.844 20.3425C20.8291 20.3425 20.8138 20.3432 20.7988 20.3441ZM5.5429 17.8565H5.53639H5.53314H5.53021C4.42846 17.8513 3.53366 16.9557 3.53366 15.8485C3.53366 14.7413 4.43367 13.8405 5.53997 13.8405C6.64627 13.8405 7.54628 14.7446 7.54628 15.8485C7.54628 16.9525 6.65115 17.8513 5.54941 17.8565H5.54615H5.5429ZM29.6883 10.1753C29.6883 11.2825 28.7883 12.1833 27.6819 12.1833C26.5756 12.1833 25.6756 11.2825 25.6756 10.1753C25.6756 9.06811 26.5756 8.16736 27.6819 8.16736C28.7883 8.16736 29.6883 9.06811 29.6883 10.1753ZM14.0933 3.31058C14.0933 2.20336 14.9933 1.30261 16.0996 1.30261C17.2059 1.30261 18.1059 2.20336 18.1059 3.31058C18.1059 4.4178 17.2059 5.31855 16.0996 5.31855C14.9933 5.31855 14.0933 4.4178 14.0933 3.31058Z" fill="#4A4A4A"/>
<path fill-rule="evenodd" clip-rule="evenodd" d="M22.6867 43.695C21.9077 43.695 21.2742 43.061 21.2742 42.2814V39.4134C20.5414 38.9395 20.0875 38.1228 20.0875 37.2289C20.0875 35.7944 21.2537 34.6276 22.6867 34.6276C24.1197 34.6276 25.2858 35.7947 25.2858 37.2289C25.2858 38.1228 24.8316 38.9395 24.0992 39.4134V42.2814C24.0992 43.061 23.4656 43.695 22.6867 43.695ZM21.389 37.2289C21.389 36.5128 21.9712 35.9302 22.6867 35.9302C23.4022 35.9302 23.9846 36.5128 23.9846 37.2289C23.9846 37.7512 23.6742 38.2205 23.1939 38.425C22.9538 38.5273 22.798 38.7634 22.798 39.0245V42.2817C22.798 42.341 22.7462 42.3927 22.687 42.3927C22.6278 42.3927 22.576 42.341 22.576 42.2817V39.0245C22.576 38.763 22.4199 38.5273 22.1797 38.425C21.6995 38.2205 21.389 37.7512 21.389 37.2289Z" fill="#F2644C"/>
</svg>
