<svg width="121" height="37" viewBox="0 0 121 37" fill="none" xmlns="http://www.w3.org/2000/svg">
<path d="M108 0L110.552 2.54497H116.276C117.034 2.54497 117.621 3.16402 117.621 3.88624V9.62963L121 13V1.34127C121 0.584656 120.379 0 119.655 0H108Z" fill="#F2644C"/>
<path d="M20.3391 22.2462C20.3391 22.9599 20.1607 23.7449 19.8039 24.6013C19.4471 25.4577 18.8761 26.2784 18.1268 27.0991C17.3418 27.9198 16.3784 28.562 15.1651 29.0973C13.9519 29.5968 12.596 29.8466 10.9903 29.8466C9.77706 29.8466 8.67089 29.7396 7.70746 29.4898C6.70835 29.2757 5.81628 28.9189 5.03126 28.4193C4.21056 27.9554 3.4969 27.3132 2.81893 26.4924C2.21233 25.7788 1.71277 24.9581 1.28458 24.1017C0.856385 23.2096 0.53524 22.2819 0.321144 21.2471C0.107048 20.248 0 19.1775 0 18.0357C0 16.1802 0.249779 14.5388 0.785019 13.0758C1.32026 11.6128 2.10528 10.3639 3.06871 9.32908C4.06783 8.29428 5.24535 7.50926 6.56561 6.97402C7.92156 6.43878 9.34886 6.15332 10.8475 6.15332C12.703 6.15332 14.3444 6.51015 15.8074 7.25948C17.2704 8.00882 18.3409 8.90089 19.1259 10.0071C19.9109 11.0775 20.2678 12.1123 20.2678 13.0758C20.2678 13.611 20.0894 14.0749 19.6968 14.4674C19.34 14.8599 18.8761 15.074 18.3409 15.074C17.7343 15.074 17.3061 14.9313 17.0206 14.6458C16.7352 14.3603 16.3784 13.8965 16.0215 13.1828C15.4149 12.041 14.7013 11.2203 13.8806 10.6493C13.0599 10.0784 12.0607 9.79295 10.8475 9.79295C8.95635 9.79295 7.422 10.5066 6.31583 11.9696C5.17399 13.3969 4.63875 15.4665 4.63875 18.1427C4.63875 19.9268 4.88853 21.3898 5.38809 22.5674C5.88764 23.7449 6.6013 24.6369 7.49336 25.2079C8.42111 25.7788 9.49159 26.0643 10.7048 26.0643C12.0251 26.0643 13.1669 25.7431 14.0947 25.0651C15.0224 24.3872 15.7004 23.4237 16.1643 22.1392C16.3784 21.5326 16.5924 21.033 16.9136 20.6762C17.1991 20.2837 17.6629 20.1052 18.3052 20.1052C18.8405 20.1052 19.34 20.2837 19.7325 20.6762C20.125 21.1757 20.3391 21.6753 20.3391 22.2462Z" fill="#424242"/>
<path d="M26.869 30.3819L27.2615 29.4184L22.0162 16.2515C21.695 15.5022 21.5523 14.9313 21.5523 14.6101C21.5523 14.2533 21.6593 13.8965 21.8378 13.611C22.0162 13.2899 22.2659 13.0401 22.6228 12.8617C22.9439 12.6833 23.3007 12.5762 23.6576 12.5762C24.2642 12.5762 24.7281 12.7546 25.0492 13.1471C25.3703 13.5396 25.6201 14.1106 25.8699 14.8242L29.4738 25.3149L32.828 15.5379C33.1135 14.7529 33.3276 14.1462 33.5417 13.6824C33.7558 13.2185 34.0056 12.933 34.2196 12.7903C34.4694 12.6476 34.8263 12.5405 35.2544 12.5405C35.5756 12.5405 35.8967 12.6119 36.1822 12.7903C36.4677 12.9687 36.7174 13.1828 36.8602 13.4683C37.0386 13.7537 37.1099 14.0749 37.1099 14.396C37.0743 14.5744 37.0029 14.8599 36.8958 15.2524C36.7888 15.6092 36.6818 16.0017 36.539 16.3586L31.0439 30.8814C30.58 32.166 30.0805 33.1651 29.6523 33.8788C29.1884 34.5924 28.5818 35.1633 27.8324 35.5559C27.0831 35.9484 26.0483 36.1268 24.7994 36.1268C23.5505 36.1268 22.6228 35.9841 21.9805 35.7343C21.3739 35.4488 21.0527 34.9849 21.0527 34.2713C21.0527 33.7717 21.1955 33.4149 21.5166 33.1294C21.8021 32.844 22.2659 32.7369 22.8369 32.7369C23.051 32.7369 23.3007 32.7726 23.5148 32.844C23.8003 32.9153 24.0144 32.951 24.2285 32.951C24.7281 32.951 25.0849 32.8797 25.3703 32.7369C25.6558 32.5942 25.9056 32.3444 26.1197 31.9876C26.2981 31.5951 26.5479 31.0598 26.869 30.3819Z" fill="#424242"/>
<path d="M42.891 8.65103V15.1453C43.676 14.3246 44.4967 13.6823 45.3531 13.2184C46.1738 12.7902 47.2086 12.5761 48.4575 12.5761C49.8848 12.5761 51.098 12.8973 52.1685 13.5752C53.239 14.2532 54.0597 15.2166 54.6306 16.5012C55.2015 17.7858 55.5227 19.2845 55.5227 21.0329C55.5227 22.3175 55.3443 23.495 55.0231 24.5655C54.702 25.636 54.2381 26.5637 53.5958 27.3488C52.9535 28.1338 52.2042 28.7404 51.3121 29.1686C50.42 29.5968 49.4566 29.8109 48.3861 29.8109C47.7438 29.8109 47.1016 29.7395 46.5306 29.5611C45.9597 29.4184 45.4601 29.2043 45.0676 28.9545C44.6751 28.7047 44.3183 28.4192 44.0328 28.1695C43.7474 27.884 43.3549 27.4915 42.891 26.9562V27.3844C42.891 28.1695 42.7126 28.7761 42.3201 29.2043C41.9276 29.5968 41.4637 29.8109 40.8571 29.8109C40.2505 29.8109 39.7866 29.5968 39.4298 29.2043C39.0729 28.7761 38.8945 28.1695 38.8945 27.3844V8.82945C38.8945 7.97306 39.0729 7.33077 39.4298 6.8669C39.7866 6.43871 40.2505 6.22461 40.8928 6.22461C41.535 6.22461 42.0346 6.43871 42.3914 6.8669C42.7126 7.25941 42.891 7.86601 42.891 8.65103ZM43.0694 21.2827C43.0694 22.9598 43.4619 24.28 44.2469 25.1721C45.032 26.0642 46.0311 26.5281 47.28 26.5281C48.3504 26.5281 49.2782 26.0642 50.0632 25.1364C50.8482 24.2087 51.2407 22.8884 51.2407 21.14C51.2407 20.0338 51.0623 19.0347 50.7412 18.2497C50.42 17.429 49.9562 16.8224 49.3852 16.3585C48.7786 15.9303 48.1007 15.6805 47.3156 15.6805C46.4949 15.6805 45.7813 15.8946 45.139 16.3585C44.4967 16.7867 43.9972 17.429 43.6403 18.2854C43.2478 19.1417 43.0694 20.1409 43.0694 21.2827Z" fill="#424242"/>
<path d="M69.5102 22.2463H61.1961C61.1961 23.2097 61.4102 24.0661 61.7671 24.8154C62.1596 25.5647 62.6591 26.1 63.2657 26.4925C63.908 26.8493 64.586 27.0634 65.3353 27.0634C65.8349 27.0634 66.2988 26.9921 66.727 26.885C67.1551 26.778 67.5477 26.5639 67.9402 26.3141C68.3327 26.0643 68.6895 25.7788 69.0463 25.4934C69.3675 25.2079 69.7957 24.8154 70.3309 24.3159C70.545 24.1374 70.8661 24.0304 71.2587 24.0304C71.6868 24.0304 72.0437 24.1374 72.3291 24.3872C72.6146 24.637 72.7216 24.9581 72.7216 25.3863C72.7216 25.7788 72.5789 26.207 72.2578 26.7423C71.9723 27.2418 71.5084 27.7414 70.9018 28.2409C70.2952 28.7048 69.5459 29.0973 68.6181 29.4185C67.6904 29.7396 66.6556 29.8824 65.4424 29.8824C62.6948 29.8824 60.5895 29.0973 59.0552 27.5273C57.5208 25.9573 56.7715 23.852 56.7715 21.1758C56.7715 19.9269 56.9499 18.7494 57.3424 17.6789C57.6992 16.6084 58.2702 15.6806 58.9838 14.8956C59.6975 14.1106 60.5895 13.5397 61.6243 13.1115C62.6591 12.719 63.8367 12.5049 65.1212 12.5049C66.7983 12.5049 68.2256 12.8617 69.4032 13.5397C70.5807 14.2533 71.4728 15.1454 72.0794 16.2516C72.686 17.3577 72.9714 18.4996 72.9714 19.6414C72.9714 20.7119 72.6503 21.3899 72.0437 21.711C71.4728 22.0678 70.6164 22.2463 69.5102 22.2463ZM61.1961 19.8198H68.9036C68.7965 18.3568 68.404 17.2864 67.7261 16.537C67.0481 15.8234 66.156 15.4665 65.0499 15.4665C63.9794 15.4665 63.123 15.8234 62.445 16.5727C61.7314 17.2864 61.3389 18.3925 61.1961 19.8198Z" fill="#424242"/>
<path d="M79.5363 23.7092V27.2775C79.5363 28.1339 79.3222 28.7762 78.9297 29.2043C78.5372 29.6325 78.0019 29.8466 77.3953 29.8466C76.7887 29.8466 76.2892 29.6325 75.8966 29.2043C75.5041 28.7762 75.29 28.1339 75.29 27.2775V15.3951C75.29 13.4683 75.968 12.5405 77.3596 12.5405C78.0733 12.5405 78.5728 12.7546 78.894 13.2185C79.2151 13.6824 79.3579 14.3247 79.3935 15.181C79.8931 14.3247 80.4283 13.6467 80.9636 13.2185C81.4988 12.7546 82.2125 12.5405 83.1045 12.5405C83.9966 12.5405 84.853 12.7546 85.7094 13.2185C86.5658 13.6824 86.9583 14.2533 86.9583 15.0026C86.9583 15.5379 86.7799 15.9661 86.423 16.2872C86.0662 16.6084 85.6737 16.7868 85.2455 16.7868C85.1028 16.7868 84.7103 16.6797 84.1037 16.5013C83.4971 16.3229 82.9618 16.2158 82.5336 16.2158C81.8913 16.2158 81.3918 16.3943 80.9993 16.7154C80.6068 17.0365 80.2856 17.5361 80.0715 18.1784C79.8574 18.8207 79.7147 19.6057 79.6076 20.4621C79.6076 21.3542 79.5363 22.4246 79.5363 23.7092Z" fill="#424242"/>
<path d="M102.944 26.8849L101.838 24.0303H92.5605L91.4543 26.9562C91.0261 28.0981 90.6693 28.8831 90.3482 29.2756C90.0627 29.6681 89.5631 29.8822 88.8852 29.8822C88.3143 29.8822 87.779 29.6681 87.3508 29.2399C86.8869 28.8118 86.6729 28.3479 86.6729 27.777C86.6729 27.4558 86.7085 27.1347 86.8156 26.8135C86.9226 26.4924 87.101 26.0285 87.3151 25.4219L93.1671 10.5779C93.3455 10.1497 93.5239 9.65015 93.7737 9.04354C94.0235 8.43694 94.2376 7.93738 94.523 7.54487C94.8085 7.15236 95.1296 6.83122 95.5578 6.58144C95.986 6.33166 96.5213 6.22461 97.1636 6.22461C97.8058 6.22461 98.3411 6.33166 98.7693 6.58144C99.1975 6.83122 99.5543 7.15236 99.8041 7.50919C100.09 7.9017 100.304 8.29421 100.482 8.75808C100.66 9.22196 100.91 9.79288 101.16 10.5422L107.119 25.2792C107.583 26.3853 107.833 27.206 107.833 27.7413C107.833 28.2765 107.619 28.7761 107.155 29.2043C106.727 29.6325 106.191 29.8465 105.549 29.8465C105.192 29.8465 104.871 29.7752 104.621 29.6681C104.371 29.5254 104.157 29.347 103.979 29.1329C103.801 28.9188 103.622 28.562 103.408 28.0981C103.265 27.6342 103.087 27.2417 102.944 26.8849ZM93.7737 20.5334H100.589L97.1279 11.1131L93.7737 20.5334Z" fill="#424242"/>
<path d="M110.188 27.0277V9.0079C110.188 8.08015 110.403 7.36649 110.831 6.90262C111.259 6.43874 111.794 6.18896 112.472 6.18896C113.15 6.18896 113.721 6.40306 114.149 6.86694C114.577 7.33081 114.792 8.04446 114.792 8.97221V26.992C114.792 27.9197 114.577 28.6334 114.149 29.0972C113.721 29.5611 113.15 29.8109 112.472 29.8109C111.794 29.8109 111.259 29.5611 110.831 29.0972C110.403 28.6691 110.188 27.9554 110.188 27.0277Z" fill="#424242"/>
</svg>
